<?xml version="1.0" encoding="utf-8"?>
<!-- Generator: Adobe Illustrator 16.0.0, SVG Export Plug-In . SVG Version: 6.00 Build 0)  -->
<!DOCTYPE svg PUBLIC "-//W3C//DTD SVG 1.1//EN" "http://www.w3.org/Graphics/SVG/1.1/DTD/svg11.dtd">
<svg version="1.1" id="Ebene_1" xmlns="http://www.w3.org/2000/svg" xmlns:xlink="http://www.w3.org/1999/xlink" x="0px" y="0px"
	 width="512px" height="512px" viewBox="0 0 512 512" enable-background="new 0 0 512 512" xml:space="preserve">
<g>
	<g>
		<path fill="#FFFFFF" d="M418.743,14.818c-2.756,0-5.512,0-8.269,0c-60.28-0.021-120.556-0.059-180.836-0.056
			c-48.975,0.003-97.948,0.063-146.924,0.079c-8.825,0.003-16.543,3.018-23.408,8.417c-18.208,14.318-27.598,34.385-34.46,55.509
			C7.632,131.76,6.091,185.909,15.449,240.496c4.306,25.124,11.705,49.357,25.297,71.21c11.885,19.109,27.298,31.765,51.899,29.716
			c14.477-1.207,29.148,0.039,43.731,0.058c67.114,0.092,134.226,0.146,201.337,0.199c27.232,0.022,54.463,0.004,81.696,0.004
			c-3.802-3.305-8.21-5.113-12.177-7.628c-12.977-8.222-21.176-20.607-27.745-33.98c-17.672-35.974-23.828-74.545-24.637-114.195
			c-0.845-41.527,3.962-82.175,20.393-120.741C384.226,44.058,395.383,24.599,418.743,14.818z M130.314,355.655
			c0,45.358,0,89.644,0,133.928c0.621,0.443,1.244,0.888,1.865,1.331c11.038-12.359,22.075-24.719,33.424-37.428
			c11.876,12.51,21.861,22.785,31.536,33.343c3.607,3.936,5.989,3.629,9.71-0.032c10.543-10.381,21.509-20.331,30.538-28.792
			c9.421,8.455,20.271,17.754,30.586,27.616c6.651,6.358,6.197,6.627,13.017,0.028c10.291-9.957,20.738-19.755,29.914-28.473
			c9.761,9.118,20.612,18.828,30.916,29.09c4.095,4.078,6.522,4.471,10.781,0.19c10.09-10.137,20.743-19.712,31.985-30.285
			c9.195,9.357,19.646,19.773,29.814,30.457c3.797,3.985,6.353,3.945,10.24-0.146c10.009-10.534,20.514-20.595,32.689-32.706
			c11.896,12.649,23.538,25.034,35.69,37.954c0-67.361,0-133.822,0-202.083c-4.945,10.271-8.513,18.993-13.171,27.088
			c-10.847,18.854-24.232,35.117-47.548,38.44c-7.372,1.053-14.992,0.49-22.498,0.493c-90.185,0.014-180.37-0.006-270.556-0.018
			C136.45,355.655,133.655,355.655,130.314,355.655z M400.066,176.734c0.493,0.129,0.984,0.256,1.479,0.383
			c0.184,3.755,0.226,7.524,0.574,11.264c1.144,12.239,3.485,24.18,10.02,34.854c7.824,12.784,20.621,12.76,28.505-0.02
			c1.349-2.185,2.536-4.501,3.52-6.871c6.245-15.079,8.606-30.979,6.345-46.933c-1.718-12.114-4.508-24.601-9.683-35.575
			c-7.044-14.934-20.458-14.396-29.171-0.168c-1.217,1.989-2.565,4.062-3.103,6.279C405.594,152.179,402.87,164.466,400.066,176.734
			z"/>
		<path d="M418.743,14.818c-23.359,9.778-34.518,29.239-43.499,50.316c-16.431,38.568-21.236,79.214-20.393,120.741
			c0.808,39.65,6.965,78.223,24.637,114.196c6.569,13.372,14.769,25.758,27.745,33.979c3.969,2.513,8.377,4.323,12.177,7.628
			c-27.233,0-54.464,0.017-81.696-0.004c-67.111-0.053-134.223-0.106-201.337-0.198c-14.582-0.02-29.255-1.265-43.731-0.059
			c-24.602,2.049-40.015-10.605-51.899-29.715c-13.592-21.853-20.991-46.09-25.297-71.211
			c-9.358-54.587-7.817-108.737,9.397-161.729c6.863-21.121,16.252-41.188,34.46-55.508c6.865-5.399,14.582-8.414,23.409-8.416
			c48.975-0.017,97.948-0.077,146.923-0.08c60.278-0.003,120.556,0.034,180.836,0.056C413.23,14.818,415.988,14.818,418.743,14.818z
			"/>
		<path d="M130.314,355.655c3.341,0,6.137,0,8.933,0c90.186,0.012,180.371,0.028,270.556,0.018
			c7.507-0.003,15.126,0.559,22.499-0.493c23.314-3.323,36.701-19.587,47.548-38.44c4.658-8.097,8.226-16.819,13.171-27.088
			c0,68.261,0,134.722,0,202.083c-12.152-12.92-23.795-25.305-35.69-37.954c-12.176,12.108-22.682,22.173-32.689,32.706
			c-3.888,4.091-6.445,4.131-10.24,0.145c-10.17-10.683-20.62-21.099-29.814-30.456c-11.243,10.572-21.896,20.148-31.985,30.285
			c-4.261,4.28-6.687,3.888-10.781-0.19c-10.304-10.262-21.155-19.973-30.917-29.09c-9.176,8.717-19.623,18.516-29.914,28.473
			c-6.818,6.598-6.364,6.33-13.017-0.029c-10.313-9.863-21.165-19.16-30.585-27.615c-9.029,8.461-19.996,18.412-30.538,28.792
			c-3.721,3.664-6.103,3.97-9.71,0.031c-9.676-10.558-19.66-20.832-31.536-33.342c-11.348,12.706-22.385,25.065-33.424,37.428
			c-0.622-0.443-1.244-0.887-1.867-1.33C130.314,445.299,130.314,401.014,130.314,355.655z"/>
		<path d="M401.666,174.845c1.943-15.816,2.65-19.528,6.887-34.896c0.537-2.218,1.886-4.29,3.102-6.278
			c8.714-14.228,22.126-14.766,29.17,0.168c5.175,10.974,7.967,23.46,9.685,35.574c2.261,15.955-0.1,31.855-6.346,46.933
			c-0.983,2.369-2.17,4.688-3.52,6.871c-7.883,12.779-20.681,12.805-28.506,0.02c-6.533-10.675-8.875-22.614-10.018-34.854
			c-0.348-3.739-0.391-7.508-0.574-11.263C401.577,176.258,401.546,175.839,401.666,174.845z"/>
	</g>
</g>
</svg>
