<?xml version="1.0" encoding="utf-8"?>
<!-- Generator: Adobe Illustrator 16.0.0, SVG Export Plug-In . SVG Version: 6.00 Build 0)  -->
<!DOCTYPE svg PUBLIC "-//W3C//DTD SVG 1.1//EN" "http://www.w3.org/Graphics/SVG/1.1/DTD/svg11.dtd">
<svg version="1.1" id="Ebene_1" xmlns="http://www.w3.org/2000/svg" xmlns:xlink="http://www.w3.org/1999/xlink" x="0px" y="0px"
	 width="512px" height="512px" viewBox="0 0 512 512" enable-background="new 0 0 512 512" xml:space="preserve">
<g display="none">
	<path display="inline" fill-rule="evenodd" clip-rule="evenodd" d="M499.804,225.287c0,10.51,0,21.019,0,31.528
		c-0.812-0.052-1.624-0.151-2.435-0.153c-79.443-0.03-158.888-0.051-238.329-0.115c-1.725-0.001-2.202,0.59-2.163,2.208
		c0.101,4.342,0.104,8.687,0.104,13.03c-0.007,68.762-0.014,137.521-0.034,206.283c-0.002,7.244-0.085,14.488-0.132,21.734
		c-9.965,0-19.932,0-29.896,0c-0.765-2.34-2.881-2.132-4.694-2.494c-10.602-2.115-21.224-4.143-31.794-6.403
		c-3.324-0.71-6.531-2.002-9.762-3.115c-3.825-1.316-7.632-2.688-11.422-4.103c-4.042-1.512-8.15-2.898-12.058-4.707
		c-5.703-2.638-11.312-5.496-16.852-8.461c-5.001-2.676-9.932-5.498-14.751-8.484c-3.659-2.269-7.178-4.787-10.611-7.389
		c-6.593-4.998-13.206-9.982-19.565-15.267c-4.018-3.34-7.691-7.116-11.34-10.874c-5.46-5.62-11.089-11.125-16.042-17.176
		c-5.29-6.461-10.136-13.327-14.705-20.322c-5.206-7.969-9.947-16.246-14.77-24.459c-1.405-2.393-2.448-5.005-3.571-7.555
		c-1.634-3.712-3.215-7.447-4.771-11.194c-1.587-3.821-3.328-7.597-4.619-11.519c-1.746-5.299-3.147-10.714-4.659-16.091
		c-2.74-9.741-5.205-19.54-6.083-29.668c-0.086-0.989-0.12-2.067-0.548-2.915c-0.481-0.954-1.383-1.693-2.102-2.525
		c0-10.146,0-20.293,0-30.442c5.606,0.053,11.212,0.153,16.819,0.153c62.679,0.012,125.357,0.01,188.036,0.005
		c11.77-0.001,23.538-0.105,35.305,0.01c2.74,0.027,3.459-1.045,3.352-3.52c-0.145-3.249-0.082-6.509-0.082-9.763
		c-0.016-67.932-0.035-135.864-0.037-203.795c0-8.512,0.092-17.023,0.138-25.533c9.966,0,19.934,0,29.899,0
		c0.846,0.556,1.644,1.496,2.544,1.609c11.413,1.419,22.698,3.431,33.673,6.939c7.734,2.472,15.552,4.731,23.139,7.596
		c7.246,2.735,14.277,6.064,21.339,9.271c3.183,1.446,6.254,3.158,9.301,4.882c2.9,1.641,5.743,3.394,8.542,5.205
		c5.434,3.517,10.959,6.917,16.183,10.726c4.798,3.499,9.405,7.301,13.817,11.277c6.638,5.981,13.204,12.063,19.475,18.423
		c4.486,4.551,8.582,9.513,12.599,14.496c4.231,5.252,8.276,10.666,12.187,16.163c2.597,3.65,4.93,7.502,7.168,11.386
		c3.181,5.517,6.223,11.117,9.215,16.742c1.346,2.533,2.479,5.184,3.617,7.821c2.07,4.794,4.158,9.583,6.074,14.441
		c1.384,3.51,2.523,7.12,3.732,10.697c1.67,4.946,3.758,9.806,4.854,14.879c1.905,8.822,3.133,17.789,4.786,26.668
		C498.126,222.78,499.142,224.001,499.804,225.287z"/>
	<path display="inline" fill-rule="evenodd" clip-rule="evenodd" fill="#FFFF00" d="M286.712,499.803c-10.51,0-21.02,0-31.529,0
		c0.054-0.811,0.152-1.623,0.154-2.434c0.03-79.444,0.051-158.888,0.115-238.33c0.002-1.725-0.59-2.201-2.209-2.163
		c-4.341,0.1-8.686,0.104-13.029,0.104c-68.761-0.006-137.523-0.012-206.284-0.034c-7.244-0.002-14.488-0.084-21.734-0.131
		c0-9.966,0-19.931,0-29.897c2.34-0.764,2.132-2.88,2.495-4.693c2.115-10.602,4.141-21.225,6.403-31.794
		c0.709-3.324,2.002-6.531,3.115-9.761c1.316-3.826,2.688-7.634,4.103-11.424c1.511-4.043,2.897-8.149,4.706-12.057
		c2.637-5.704,5.497-11.312,8.461-16.853c2.675-5,5.498-9.93,8.485-14.75c2.268-3.659,4.786-7.18,7.389-10.612
		c4.997-6.594,9.981-13.206,15.266-19.565c3.339-4.019,7.116-7.692,10.873-11.34c5.622-5.461,11.127-11.09,17.177-16.042
		c6.461-5.29,13.327-10.135,20.321-14.706c7.97-5.207,16.248-9.946,24.461-14.77c2.392-1.405,5.003-2.448,7.554-3.57
		c3.712-1.634,7.447-3.216,11.194-4.771c3.822-1.589,7.596-3.328,11.518-4.621c5.299-1.745,10.714-3.145,16.09-4.658
		c9.742-2.739,19.542-5.206,29.669-6.082c0.988-0.086,2.066-0.121,2.916-0.55c0.953-0.48,1.691-1.382,2.525-2.101
		c10.146,0,20.293,0,30.441,0c-0.053,5.606-0.152,11.213-0.154,16.819c-0.01,62.68-0.009,125.356-0.004,188.037
		c0.002,11.77,0.105,23.538-0.01,35.306c-0.027,2.739,1.045,3.458,3.52,3.35c3.25-0.145,6.508-0.082,9.763-0.082
		c67.933-0.016,135.864-0.036,203.796-0.037c8.512,0,17.022,0.091,25.533,0.137c0,9.966,0,19.934,0,29.899
		c-0.555,0.846-1.495,1.644-1.608,2.544c-1.419,11.413-3.431,22.698-6.938,33.674c-2.473,7.733-4.732,15.551-7.596,23.138
		c-2.738,7.247-6.066,14.277-9.271,21.339c-1.448,3.184-3.16,6.254-4.885,9.301c-1.641,2.9-3.393,5.744-5.203,8.542
		c-3.518,5.434-6.918,10.959-10.727,16.184c-3.5,4.797-7.299,9.404-11.276,13.816c-5.983,6.639-12.063,13.204-18.425,19.475
		c-4.551,4.486-9.512,8.582-14.495,12.6c-5.251,4.23-10.665,8.275-16.162,12.188c-3.649,2.595-7.504,4.928-11.386,7.166
		c-5.518,3.182-11.117,6.223-16.742,9.215c-2.533,1.347-5.184,2.479-7.82,3.617c-4.795,2.07-9.584,4.158-14.443,6.074
		c-3.51,1.385-7.118,2.523-10.696,3.732c-4.946,1.67-9.806,3.758-14.878,4.854c-8.822,1.906-17.789,3.133-26.669,4.787
		C289.218,498.125,287.998,499.141,286.712,499.803z"/>
</g>
<g display="none">
	<path display="inline" fill-rule="evenodd" clip-rule="evenodd" d="M241.317,198.783c-3.749,1.357-6.716,2.758-9.84,3.461
		c-2.76,0.623-5.967,1.306-8.5,0.487c-5.724-1.851-11.303-4.32-15.049-9.561c-2.224-3.113-3.658-6.408-4.962-10.056
		c-1.733-4.845,0.63-8.99,0.545-13.466c-0.046-2.461,2.013-5.409,3.92-7.358c2.944-3.006,6.525-5.408,9.944-7.918
		c0.784-0.576,2.004-0.735,3.034-0.766c3.157-0.097,6.322-0.035,9.482-0.037c2.275-0.001,3.513-2.537,2.392-5.161
		c-2.646-6.192-2.404-12.56-1.733-19.096c0.789-7.686,4.568-14.127,7.799-20.817c2.566-5.314,5.239-10.579,8.009-15.789
		c2.172-4.08,4.436-8.125,6.991-11.965c0.392-0.59,2.975-0.505,3.841,0.168c1.643,1.281,3.098,3.047,4.068,4.908
		c4.049,7.78,7.473,15.918,11.931,23.45c4.048,6.837,5.577,14.512,8.446,21.715c1.025,2.575-0.389,6.156-0.797,9.262
		c-0.37,2.815-1.145,5.602-1.277,8.423c-0.232,4.959-0.07,5.22,4.998,4.921c11.207-0.662,17.557,6.065,22.309,14.741
		c4.037,7.366,2.453,17.085-2.973,23.11c-0.287,0.323-0.756,0.617-0.821,0.982c-0.831,4.625-5.386,5.919-8.373,7.616
		c-3.433,1.949-7.819,4.092-12.284,3.043c-3.637-0.854-7.123-2.35-11.131-3.714c-0.175,3.04-1.052,5.767,0.787,8.673
		c1.846,2.919,2.984,6.279,4.766,9.248c1.511,2.519,3.479,4.764,5.273,7.109c0.392,0.513,0.941,0.905,1.365,1.396
		c5.083,5.897,11.743,8.851,18.908,11.653c6.176,2.411,12.354,2.197,18.042,1.238c7.491-1.261,15.087-3.2,21.999-7.228
		c6.15-3.582,11.959-7.368,16.832-12.563c2.332-2.486,2.377-4.119-0.049-6.578c-4.992-5.061-6.457-11.347-5.283-18.019
		c0.477-2.713,2.863-5.08,4.332-7.633c3.019-5.24,8.742-5.522,13.566-7.452c0.191-0.077,0.456-0.093,0.645-0.024
		c5.813,2.083,12.199,2.769,16.313,8.481c3.537,4.915,4.42,10.864,1.701,16.458c-0.815,1.672-0.753,3.82-1.717,5.359
		c-3.033,4.83-7.768,7.119-13.313,7.367c-2.628,0.118-3.777,0.704-3.552,3.507c0.215,2.698,0.241,5.443,0.002,8.138
		c-0.631,7.009,2.428,13.021,5.033,19.123c2.271,5.311,5.977,9.602,10.787,12.806c7.217,4.803,15.294,7.734,23.787,5.774
		c5.018-1.157,9.594-4.663,14.068-7.57c3.656-2.369,7.141-5.152,10.21-8.241c2.928-2.953,5.175-6.572,7.808-9.827
		c1.289-1.589,2.773-3.016,4.107-4.445c-1.661-2.448-3.662-2.986-6.02-3.752c-2.568-0.838-4.875-3.541-6.516-5.959
		c-4.594-6.782-3.52-13.437,1.506-19.6c1.646-2.02,3.533-3.723,6.492-3.529c0.756,0.051,1.664-0.357,2.301-0.83
		c1.8-1.338,3.409-1.133,5.351-0.145c1.532,0.779,3.734,0.448,5.038,1.419c2.064,1.542,3.672,3.72,5.385,5.707
		c0.818,0.952,1.432,2.082,2.536,3.729c2.745-2.617,4.972-5.31,7.739-7.213c2.785-1.92,6.106-3.065,9.207-4.524
		c0.469-0.223,1.076-0.194,1.498-0.468c6.166-4.009,13.034-1.455,19.562-2.017c0.741-0.065,1.952,1.007,2.273,1.819
		c0.215,0.541-0.595,1.749-1.243,2.318c-1.741,1.527-3.774,2.731-5.457,4.313c-3.321,3.122-6.423,6.475-9.726,9.62
		c-5.218,4.969-9.538,10.575-13.089,16.859c-1.24,2.196-3.624,3.722-5.007,5.862c-4.344,6.716-8.414,13.609-12.681,20.376
		c-3.158,5.004-6.48,9.907-9.677,14.887c-0.675,1.052-1.116,2.255-1.69,3.372c-3.709,7.227-7.496,14.418-11.115,21.69
		c-2.306,4.638-4.318,9.419-6.557,14.09c-0.908,1.899-2.307,3.586-3.061,5.533c-2.277,5.876-4.346,11.835-6.646,18.165
		c-0.99-0.002-2.268-0.004-3.543-0.006c-105.872-0.113-211.746-0.229-317.621-0.345c-4.645-0.005-4.656-0.12-6.023-4.884
		c-0.612-2.129-1.715-4.109-2.51-6.191c-2.504-6.558-4.842-13.16-8.381-19.303c-1.818-3.156-2.578-6.906-4.211-10.189
		c-1.865-3.756-4.223-7.266-6.268-10.938c-4.35-7.809-8.54-15.709-12.994-23.455c-1.991-3.468-4.481-6.646-6.706-9.98
		c-1.166-1.749-2.162-3.613-3.374-5.324c-6.639-9.364-12.182-19.521-20.761-27.475c-3.249-3.012-5.559-7.011-8.568-10.313
		c-1.646-1.807-3.884-3.069-5.808-4.636c-1.042-0.849-2.236-1.662-2.918-2.765c-1.168-1.892-0.248-3.558,1.77-3.648
		c5.199-0.231,10.451-0.388,15.617,0.1c2.24,0.211,4.227,2.355,6.494,3.141c5.265,1.821,8.452,6.111,12.229,9.718
		c0.697,0.668,1.399,1.332,2.408,2.289c0.942-1.682,2.164-3.091,2.547-4.7c0.95-3.989,4.875-4.042,7.368-5.93
		c1.413-1.07,3.369-1.856,5.131-1.963c7.141-0.436,13.496,5.792,15.671,12.525c2.839,8.796-2.054,13.332-7.706,17.929
		c-1.092,0.89-2.67,1.167-3.831,1.999c-2.471,1.768-2.384,4.123-0.479,6.089c6.574,6.78,12.822,14.003,20.114,19.928
		c6.868,5.578,15.562,8.834,24.405,6.363c5.953-1.663,12.038-4.385,16.525-9.443c2.982-3.36,6.457-6.283,7.989-10.698
		c0.479-1.378,0.647-2.956,1.426-4.129c3.566-5.367,0.709-11.753,2.888-17.387c0.569-1.47-0.619-3.608-0.971-5.444
		c-0.548-2.862-2.847-1.758-4.572-2.159c-1.683-0.391-3.362-1.086-4.837-1.986c-1.171-0.713-1.907-2.12-3.053-2.902
		c-4.414-3.006-5.521-7.864-7.187-12.423c-0.12-0.33-0.102-0.763-0.011-1.111c1.802-6.886,4.173-13.471,11.164-16.841
		c2.706-1.304,5.625-2.307,8.556-2.937c1.001-0.216,2.285,1.28,3.535,1.73c2.752,0.997,5.667,1.604,8.313,2.812
		c1.424,0.651,2.851,2.011,3.539,3.415c1.791,3.655,3.189,7.502,4.708,11.29c0.152,0.377,0.178,0.912,0.033,1.281
		c-1.495,3.814-2.999,7.625-4.598,11.395c-0.273,0.644-0.93,1.449-1.535,1.577c-3.496,0.735-2.497,2.937-1.595,4.899
		c1.813,3.941,4.505,6.99,8.579,8.94c2.819,1.352,5.136,3.729,7.931,5.152c2.853,1.454,6.02,2.289,9.037,3.429
		c0.887,0.335,1.75,0.745,2.592,1.182c0.752,0.39,1.42,1.148,2.197,1.262c5.295,0.776,10.606,1.48,15.923,2.088
		c1.716,0.195,3.479,0.132,5.208,0.018c6.97-0.467,13.288-2.585,18.678-7.245c1.979-1.711,4.807-2.639,6.344-4.625
		c3.65-4.71,6.925-9.734,10.006-14.841c1.5-2.484,2.307-5.409,3.265-8.19C240.739,202.54,240.88,200.969,241.317,198.783z"/>
	<path display="inline" fill-rule="evenodd" clip-rule="evenodd" d="M254.903,378.397c-50.272-0.055-100.547-0.049-150.819-0.257
		c-5.131-0.021-9.566-2.703-12.406-7.139c-1.453-2.27-3.2-5.021-3.078-7.469c0.165-3.314,1.533-6.807,3.204-9.762
		c3.573-6.316,9.372-8.521,16.594-8.494c52.987,0.18,105.975,0.182,158.962,0.238c46.129,0.053,92.253,0.133,138.381,0.116
		c7.385-0.002,11.868,4.629,14.934,10.091c4.107,7.306-0.948,17.336-8.456,20.776c-4.485,2.054-8.802,2.052-13.338,2.046
		C350.889,378.506,302.895,378.449,254.903,378.397z"/>
</g>
<g>
	<path fill-rule="evenodd" clip-rule="evenodd" fill="#FFFFFF" d="M331.455,321.229c41.91,4.373,73.728-6.229,81.88-51.883
		c24.146-5.661,25.416-7.266,26.701-32.391c0.28-5.485,0.845-10.956,1.268-16.435c3.772-48.889,7.721-97.764,11.219-146.673
		c1.327-18.56-3.496-23.071-22.493-23.115c-16.075-0.036-32.15-0.047-48.227,0.002c-18.782,0.058-23.358,4.542-23.364,22.917
		c-0.02,54.996,0.296,109.996-0.194,164.986c-0.139,15.563,0.222,29.325,20.68,29.978c-4.1,15.12-13.832,20.852-26.94,20.098
		c-11.266-0.646-22.416-4.568-33.631-4.632c-76.992-0.43-153.987-0.234-230.981-0.199c-4.451,0.003-8.902,0.365-14.037,0.591
		c0,8.69-0.002,15.86,0.001,23.031c0.02,41.026,10.49,57.639,49.062,73.034c16.668,6.653,34.527,10.326,52.499,15.543
		c0,7.858,0,16.497,0,26.591c-27.592,0-54.465,0-81.663,0c0,12.155,0,22.837,0,33.362c73.101,0,145.271,0,217.684,0
		c0-11.146,0-21.505,0-33.601c-11.504,0-22.21,0-33.811,0c0-9.312,0.628-16.949-0.151-24.438
		c-1.097-10.542,2.146-16.181,12.565-21.043C312.01,366.461,330.866,351.637,331.455,321.229z"/>
	<path fill-rule="evenodd" clip-rule="evenodd" d="M331.455,321.229c-0.589,30.408-19.445,45.232-41.935,55.725
		c-10.42,4.862-13.662,10.501-12.565,21.043c0.779,7.489,0.151,15.127,0.151,24.438c11.601,0,22.307,0,33.811,0
		c0,12.096,0,22.454,0,33.601c-72.413,0-144.583,0-217.684,0c0-10.525,0-21.207,0-33.362c27.198,0,54.071,0,81.663,0
		c0-10.094,0-18.732,0-26.591c-17.972-5.217-35.831-8.89-52.499-15.543c-38.572-15.396-49.042-32.008-49.062-73.034
		c-0.003-7.171-0.001-14.341-0.001-23.031c5.135-0.226,9.586-0.588,14.037-0.591c76.994-0.035,153.989-0.23,230.981,0.199
		c11.215,0.063,22.365,3.985,33.631,4.632c13.108,0.754,22.841-4.978,26.94-20.098c-20.458-0.653-20.818-14.415-20.68-29.978
		c0.49-54.991,0.175-109.99,0.194-164.986c0.006-18.375,4.582-22.858,23.364-22.917c16.076-0.05,32.151-0.039,48.227-0.002
		c18.997,0.043,23.82,4.555,22.493,23.115c-3.498,48.909-7.446,97.784-11.219,146.673c-0.423,5.479-0.987,10.95-1.268,16.435
		c-1.285,25.125-2.556,26.729-26.701,32.391C405.183,315,373.365,325.602,331.455,321.229z"/>
</g>
</svg>
