<?xml version="1.0" encoding="utf-8"?>
<!-- Generator: Adobe Illustrator 16.0.0, SVG Export Plug-In . SVG Version: 6.00 Build 0)  -->
<!DOCTYPE svg PUBLIC "-//W3C//DTD SVG 1.1//EN" "http://www.w3.org/Graphics/SVG/1.1/DTD/svg11.dtd">
<svg version="1.1" id="Ebene_1" xmlns="http://www.w3.org/2000/svg" xmlns:xlink="http://www.w3.org/1999/xlink" x="0px" y="0px"
	 width="512px" height="512px" viewBox="0 0 512 512" enable-background="new 0 0 512 512" xml:space="preserve">
<g>
	<g>
		<path fill="#FFFFFF" d="M480.939,1c11.332,0,22.664,0,33.996,0c0,170.979,0,341.957,0,512.936c-170.979,0-341.957,0-512.936,0
			c0-11.332,0-22.664,0-33.995c0.624-0.552,1.277-1.07,1.865-1.657c48.435-48.414,96.864-96.833,145.282-145.266
			c0.894-0.895,1.623-1.951,2.664-3.217c-3.608-3.32-6.956-6.4-11.305-10.404c-1.756,2.355-2.862,4.287-4.379,5.808
			c-43.206,43.274-86.451,86.511-129.703,129.74c-1.404,1.402-2.946,2.668-4.424,3.998c0-21.664,0-43.329,0-64.992
			c50.813-50.732,101.637-101.457,152.44-152.199C233.299,162.99,312.146,84.218,390.985,5.439c1.401-1.4,2.646-2.957,3.965-4.439
			c21.664,0,43.328,0,64.992,0c-1.329,1.477-2.595,3.019-3.997,4.423c-45.673,45.695-91.36,91.377-137.04,137.065
			c-1.381,1.382-2.705,2.82-4.396,4.588c3.736,3.374,7.137,6.441,11.743,10.599c1.384-2.047,2.274-3.949,3.671-5.346
			c49.058-49.14,98.164-98.23,147.257-147.335C478.472,3.702,479.688,2.333,480.939,1z M115.171,512.936
			c3.214,0,6.845-0.33,10.392,0.074c5.974,0.685,10.147-1.553,14.391-5.803C262.581,384.355,385.261,261.559,508.261,139.08
			c8.271-8.237,4.577-16.685,5.474-24.707C380.876,247.231,248.086,380.021,115.171,512.936z M219.992,512.935
			c3.232,0,7.234-0.296,11.175,0.071c5.4,0.504,9.244-1.372,13.11-5.266c40.387-40.672,80.943-81.175,121.507-121.67
			c48.11-48.026,96.282-95.991,144.385-144.026c1.469-1.467,3.383-3.341,3.514-5.14c0.44-6.046,0.168-12.143,0.168-18.721
			C415.511,316.82,317.716,414.912,219.992,512.935z M513.91,306.032c-68.975,68.975-138.108,138.108-206.902,206.902
			c3.774,0,8.619,0.359,13.374-0.14c2.691-0.283,5.802-1.361,7.747-3.146c6.742-6.188,13.059-12.845,19.536-19.322
			c54.183-54.183,108.368-108.356,162.517-162.574c1.467-1.469,3.423-3.306,3.56-5.093
			C514.192,316.764,513.91,310.813,513.91,306.032z M366.521,194.09c0.995-0.841,1.791-1.422,2.48-2.109
			C416.502,144.586,464,97.187,511.464,49.753c1.008-1.007,2.245-2.394,2.296-3.646c0.238-6.028,0.106-12.071,0.106-17.638
			c-52.322,52.319-104.524,104.518-156.97,156.958C359.778,188.019,363.08,190.993,366.521,194.09z M182.812,358.111
			C131.32,409.827,80.158,461.212,28.658,512.934c4.279,0,8.558-0.278,12.781,0.076c4.525,0.381,7.685-1.161,10.91-4.402
			c45.475-45.691,91.093-91.239,136.672-136.828c1.282-1.281,2.51-2.619,4.104-4.286
			C189.554,364.245,186.165,361.161,182.812,358.111z M513.921,383.428c-43.206,43.469-86.146,86.668-128.729,129.508
			c3.2,0,7.391-0.327,11.504,0.084c5.141,0.515,8.613-1.511,12.182-5.09c34.098-34.208,68.389-68.224,102.54-102.375
			c1.271-1.271,2.296-3.363,2.391-5.127C514.111,394.788,513.921,389.124,513.921,383.428z M470.661,512.935
			c5.013,0,9.865,0.368,14.626-0.143c2.688-0.288,5.763-1.427,7.725-3.213c6.275-5.711,12.133-11.886,18.103-17.93
			c1.027-1.04,2.542-2.284,2.593-3.486c0.264-6.195,0.122-12.407,0.122-18.358C499.387,484.236,485.2,498.409,470.661,512.935z"/>
		<path fill="#FFFFFF" d="M2,372.953c0-27.996,0-55.993,0-83.989c1.109-0.998,2.271-1.946,3.325-3
			c93.888-93.873,187.768-187.752,281.64-281.64c1.054-1.054,2.002-2.214,2.999-3.324c27.996,0,55.993,0,83.988,0
			c-1.231,1.516-2.341,3.156-3.716,4.53c-45.249,45.208-90.547,90.369-135.79,135.584c-62.8,62.76-125.544,125.578-188.354,188.328
			C31.484,344.034,16.702,358.453,2,372.953z"/>
		<path fill="#FFFFFF" d="M203.975,1c21.664,0,43.328,0,64.991,0c-1.151,1.387-2.201,2.878-3.472,4.148
			C179.062,91.613,92.612,178.063,6.147,264.496c-1.27,1.27-2.76,2.318-4.146,3.47c0-21.663,0-43.328,0-64.991
			c0.886-0.746,1.833-1.43,2.648-2.245C70.196,135.317,135.735,69.896,201.255,4.456C202.285,3.427,203.074,2.157,203.975,1z"/>
		<path fill="#FFFFFF" d="M124.984,1c19.331,0,38.662,0,57.993,0c-0.947,1.137-1.812,2.358-2.854,3.401
			C134.613,49.94,89.107,95.485,43.548,140.976C29.78,154.724,15.854,168.314,2,181.977c0-19.331,0-38.662,0-57.993
			c1.011-0.841,2.096-1.608,3.021-2.534C44.177,82.32,83.32,43.178,122.45,4.022C123.375,3.096,124.143,2.011,124.984,1z"/>
		<path d="M2,372.953c14.702-14.5,29.483-28.919,44.092-43.514c62.811-62.748,125.555-125.566,188.354-188.326
			C279.69,95.899,324.988,50.738,370.237,5.53c1.375-1.374,2.483-3.014,3.716-4.53c6.999,0,13.998,0,20.997,0
			c-1.317,1.483-2.563,3.039-3.965,4.439C312.146,84.218,233.299,162.99,154.441,241.751C103.637,292.493,52.814,343.218,2,393.95
			C2,386.951,2,379.952,2,372.953z"/>
		<path d="M2,267.966c1.387-1.151,2.877-2.2,4.146-3.47C92.612,178.063,179.062,91.613,265.494,5.148
			c1.271-1.271,2.319-2.761,3.472-4.148c7,0,13.999,0,20.998,0c-0.997,1.11-1.945,2.27-2.999,3.324
			C193.093,98.211,99.213,192.091,5.325,285.964c-1.055,1.054-2.216,2.002-3.325,3C2,281.965,2,274.966,2,267.966z"/>
		<path fill="#FFFFFF" d="M2,102.987c0-21.664,0-43.328,0-64.992C14.332,25.663,26.663,13.332,38.995,1c21.664,0,43.327,0,64.991,0
			c-0.874,1.163-1.621,2.451-2.64,3.47C69.41,36.451,37.451,68.41,5.47,100.347C4.451,101.364,3.163,102.113,2,102.987z"/>
		<path d="M2,181.977c13.854-13.663,27.779-27.253,41.548-41.001C89.107,95.485,134.613,49.94,180.123,4.401
			c1.042-1.043,1.906-2.264,2.854-3.401c6.999,0,13.998,0,20.998,0c-0.9,1.157-1.688,2.427-2.719,3.456
			C135.735,69.896,70.196,135.317,4.649,200.729c-0.816,0.815-1.763,1.5-2.648,2.245C2,195.975,2,188.976,2,181.977z"/>
		<path d="M480.939,1c-1.252,1.333-2.468,2.702-3.759,3.994c-49.093,49.104-98.199,98.195-147.257,147.335
			c-1.396,1.397-2.287,3.299-3.671,5.346c-4.606-4.158-8.007-7.226-11.743-10.599c1.689-1.768,3.015-3.206,4.396-4.588
			c45.68-45.688,91.367-91.37,137.04-137.065c1.402-1.404,2.668-2.946,3.997-4.423C466.941,1,473.94,1,480.939,1z"/>
		<path d="M2,458.942c1.478-1.33,3.02-2.596,4.424-3.998c43.252-43.229,86.498-86.466,129.704-129.741
			c1.518-1.521,2.623-3.451,4.379-5.807c4.349,4.002,7.696,7.082,11.305,10.403c-1.041,1.267-1.771,2.322-2.664,3.216
			C100.73,381.449,52.3,429.868,3.865,478.282c-0.588,0.587-1.242,1.105-1.865,1.657C2,472.94,2,465.941,2,458.942z"/>
		<path d="M2,102.987c1.163-0.874,2.451-1.623,3.47-2.64C37.451,68.41,69.41,36.451,101.347,4.47c1.019-1.019,1.767-2.307,2.64-3.47
			c7,0,13.999,0,20.998,0c-0.841,1.011-1.608,2.096-2.533,3.022C83.32,43.178,44.177,82.32,5.022,121.45
			c-0.927,0.926-2.012,1.693-3.021,2.534C2,116.985,2,109.986,2,102.987z"/>
		<path d="M38.995,1C26.663,13.332,14.332,25.663,2,37.995c0-6.999,0-13.998,0-20.997C7.333,11.665,12.665,6.333,17.998,1
			C24.997,1,31.996,1,38.995,1z"/>
		<path fill="#FFFFFF" d="M17.998,1C12.665,6.333,7.333,11.665,2,16.998C2,11.665,2,6.333,2,1C7.333,1,12.665,1,17.998,1z"/>
		<path d="M115.171,512.936c132.915-132.914,265.704-265.705,398.563-398.563c-0.896,8.022,2.799,16.47-5.474,24.707
			c-123,122.479-245.68,245.275-368.308,368.127c-4.243,4.25-8.417,6.486-14.391,5.803
			C122.017,512.604,118.386,512.936,115.171,512.936z"/>
		<path d="M219.992,512.935c97.724-98.021,195.519-196.112,293.858-294.75c0,6.578,0.271,12.675-0.168,18.721
			c-0.131,1.799-2.045,3.672-3.514,5.14c-48.103,48.035-96.273,96-144.385,144.027c-40.563,40.494-81.12,80.997-121.507,121.669
			c-3.866,3.894-7.71,5.77-13.11,5.266C227.227,512.639,223.225,512.935,219.992,512.935z"/>
		<path d="M513.91,306.032c0,4.778,0.281,10.731-0.17,16.628c-0.137,1.787-2.093,3.624-3.56,5.093
			c-54.147,54.218-108.334,108.394-162.517,162.574c-6.479,6.479-12.794,13.134-19.536,19.322c-1.945,1.784-5.056,2.862-7.747,3.146
			c-4.755,0.499-9.6,0.14-13.374,0.14C375.802,444.142,444.937,375.007,513.91,306.032z"/>
		<path d="M366.521,194.09c-3.44-3.097-6.743-6.071-9.623-8.664c52.444-52.439,104.646-104.638,156.97-156.958
			c0,5.567,0.133,11.61-0.106,17.638c-0.05,1.252-1.288,2.639-2.296,3.646c-47.464,47.434-94.962,94.833-142.463,142.228
			C368.313,192.668,367.517,193.249,366.521,194.09z"/>
		<path d="M182.812,358.111c3.354,3.05,6.743,6.134,10.313,9.382c-1.593,1.667-2.821,3.005-4.104,4.286
			c-45.579,45.589-91.197,91.137-136.672,136.828c-3.226,3.241-6.384,4.783-10.91,4.402c-4.225-0.354-8.502-0.076-12.781-0.076
			C80.158,461.212,131.319,409.827,182.812,358.111z"/>
		<path d="M513.921,383.428c0,5.696,0.189,11.36-0.112,16.999c-0.095,1.765-1.12,3.855-2.391,5.128
			c-34.151,34.151-68.442,68.167-102.54,102.375c-3.567,3.579-7.041,5.604-12.182,5.09c-4.114-0.411-8.304-0.084-11.504-0.084
			C427.774,470.096,470.715,426.896,513.921,383.428z"/>
		<path d="M470.661,512.935c14.539-14.524,28.726-28.697,43.167-43.13c0,5.951,0.142,12.163-0.122,18.358
			c-0.051,1.202-1.564,2.446-2.593,3.486c-5.97,6.044-11.826,12.219-18.103,17.93c-1.962,1.786-5.036,2.925-7.725,3.213
			C480.527,513.303,475.674,512.935,470.661,512.935z"/>
	</g>
</g>
<g id="Ebene_2" opacity="0.5">
	
		<radialGradient id="SVGID_1_" cx="300.0667" cy="90.542" r="256" gradientTransform="matrix(1 0 0 -1 -41.6001 348.0098)" gradientUnits="userSpaceOnUse">
		<stop  offset="0" style="stop-color:#FFFFFF"/>
		<stop  offset="1" style="stop-color:#000000"/>
	</radialGradient>
	<rect x="2.467" y="1.468" fill="url(#SVGID_1_)" width="512" height="512"/>
</g>
<text transform="matrix(0.7071 -0.7071 0.7071 0.7071 207.9036 333.1973)" font-family="'MyriadPro-Regular'" font-size="72">NSFW</text>
</svg>
