<?xml version="1.0" encoding="utf-8"?>
<!-- Generator: Adobe Illustrator 16.0.0, SVG Export Plug-In . SVG Version: 6.00 Build 0)  -->
<!DOCTYPE svg PUBLIC "-//W3C//DTD SVG 1.1//EN" "http://www.w3.org/Graphics/SVG/1.1/DTD/svg11.dtd">
<svg version="1.1" id="Ebene_1" xmlns="http://www.w3.org/2000/svg" xmlns:xlink="http://www.w3.org/1999/xlink" x="0px" y="0px"
	 width="512px" height="512px" viewBox="0 0 512 512" enable-background="new 0 0 512 512" xml:space="preserve">
<g>
	<g>
		<path fill-rule="evenodd" clip-rule="evenodd" fill="#FFFFFF" d="M480.939,1c11.332,0,22.664,0,33.996,0
			c0,170.979,0,341.957,0,512.936c-170.979,0-341.957,0-512.936,0c0-11.332,0-22.664,0-33.996c0.624-0.551,1.278-1.07,1.865-1.657
			c48.435-48.414,96.865-96.833,145.283-145.266c0.893-0.894,1.623-1.95,2.664-3.216c-3.609-3.321-6.956-6.401-11.305-10.404
			c-1.756,2.355-2.862,4.286-4.379,5.807C92.921,368.479,49.676,411.715,6.424,454.944c-1.404,1.403-2.946,2.668-4.424,3.998
			c0-21.664,0-43.328,0-64.992c50.814-50.732,101.637-101.457,152.441-152.199C233.299,162.99,312.146,84.218,390.985,5.439
			c1.401-1.4,2.646-2.957,3.965-4.439c21.664,0,43.328,0,64.992,0c-1.329,1.477-2.595,3.019-3.997,4.423
			c-45.673,45.695-91.36,91.377-137.04,137.065c-1.381,1.382-2.705,2.82-4.396,4.588c3.737,3.374,7.137,6.441,11.743,10.599
			c1.384-2.047,2.275-3.949,3.671-5.346c49.058-49.14,98.164-98.23,147.257-147.335C478.472,3.702,479.688,2.333,480.939,1z
			 M115.171,512.936c3.214,0,6.845-0.331,10.392,0.074c5.973,0.684,10.147-1.553,14.39-5.803
			C262.581,384.355,385.261,261.558,508.261,139.08c8.272-8.237,4.577-16.685,5.474-24.707
			C380.876,247.231,248.086,380.021,115.171,512.936z M219.992,512.935c3.233,0,7.235-0.296,11.175,0.071
			c5.401,0.504,9.244-1.372,13.111-5.266c40.386-40.672,80.943-81.175,121.507-121.669c48.11-48.027,96.282-95.992,144.384-144.027
			c1.469-1.467,3.383-3.341,3.514-5.14c0.44-6.046,0.168-12.143,0.168-18.721C415.511,316.821,317.716,414.912,219.992,512.935z
			 M513.911,306.032c-68.975,68.975-138.109,138.109-206.903,206.903c3.775,0,8.619,0.359,13.374-0.14
			c2.692-0.283,5.802-1.361,7.747-3.146c6.743-6.188,13.059-12.844,19.537-19.322c54.182-54.182,108.368-108.357,162.516-162.574
			c1.467-1.469,3.423-3.306,3.56-5.093C514.192,316.764,513.911,310.812,513.911,306.032z M366.521,194.09
			c0.995-0.841,1.791-1.422,2.48-2.109c47.501-47.395,94.999-94.794,142.463-142.228c1.008-1.007,2.246-2.394,2.296-3.646
			c0.239-6.028,0.107-12.071,0.107-17.638c-52.323,52.319-104.525,104.518-156.97,156.958
			C359.778,188.019,363.081,190.993,366.521,194.09z M182.812,358.112c-51.492,51.715-102.654,103.1-154.154,154.822
			c4.28,0,8.558-0.279,12.782,0.076c4.525,0.381,7.684-1.161,10.91-4.403c45.474-45.691,91.093-91.239,136.672-136.827
			c1.282-1.282,2.51-2.62,4.103-4.287C189.554,364.245,186.165,361.161,182.812,358.112z M513.921,383.428
			c-43.206,43.468-86.146,86.668-128.728,129.508c3.2,0,7.39-0.328,11.504,0.083c5.14,0.515,8.613-1.51,12.181-5.089
			c34.098-34.208,68.389-68.224,102.54-102.376c1.271-1.271,2.296-3.362,2.391-5.127
			C514.111,394.788,513.921,389.124,513.921,383.428z M470.662,512.935c5.012,0,9.865,0.368,14.626-0.143
			c2.688-0.288,5.762-1.427,7.724-3.213c6.276-5.711,12.133-11.886,18.103-17.93c1.027-1.04,2.542-2.284,2.593-3.486
			c0.263-6.195,0.122-12.407,0.122-18.358C499.387,484.236,485.201,498.409,470.662,512.935z"/>
		<path fill-rule="evenodd" clip-rule="evenodd" fill="#FFFFFF" d="M2,372.953c0-27.996,0-55.993,0-83.989
			c1.11-0.998,2.271-1.946,3.325-3c93.888-93.873,187.768-187.752,281.64-281.64c1.054-1.054,2.002-2.214,2.999-3.324
			c27.996,0,55.993,0,83.989,0c-1.232,1.516-2.341,3.156-3.716,4.53c-45.249,45.208-90.547,90.369-135.79,135.584
			c-62.8,62.76-125.544,125.578-188.355,188.327C31.484,344.034,16.702,358.453,2,372.953z"/>
		<path fill-rule="evenodd" clip-rule="evenodd" fill="#FFFFFF" d="M203.975,1c21.664,0,43.328,0,64.991,0
			c-1.151,1.387-2.201,2.878-3.472,4.148C179.062,91.613,92.612,178.063,6.147,264.496c-1.27,1.27-2.76,2.318-4.147,3.47
			c0-21.663,0-43.328,0-64.991c0.886-0.746,1.833-1.43,2.649-2.245C70.196,135.317,135.735,69.896,201.255,4.456
			C202.285,3.427,203.074,2.157,203.975,1z"/>
		<path fill-rule="evenodd" clip-rule="evenodd" fill="#FFFFFF" d="M124.984,1c19.331,0,38.662,0,57.993,0
			c-0.947,1.137-1.812,2.358-2.854,3.401C134.613,49.94,89.107,95.485,43.548,140.976C29.78,154.724,15.854,168.314,2,181.977
			c0-19.331,0-38.662,0-57.993c1.011-0.841,2.096-1.608,3.022-2.534C44.177,82.32,83.32,43.178,122.45,4.022
			C123.375,3.096,124.143,2.011,124.984,1z"/>
		<path fill-rule="evenodd" clip-rule="evenodd" d="M2,372.953c14.702-14.5,29.484-28.919,44.092-43.513
			c62.811-62.749,125.555-125.567,188.355-188.327C279.69,95.899,324.988,50.738,370.237,5.53c1.375-1.374,2.483-3.014,3.716-4.53
			c6.999,0,13.998,0,20.997,0c-1.318,1.483-2.563,3.039-3.965,4.439C312.146,84.218,233.299,162.99,154.441,241.751
			C103.637,292.493,52.814,343.218,2,393.95C2,386.951,2,379.952,2,372.953z"/>
		<path fill-rule="evenodd" clip-rule="evenodd" d="M2,267.966c1.387-1.151,2.877-2.2,4.147-3.47
			C92.612,178.063,179.062,91.613,265.494,5.148c1.271-1.271,2.32-2.761,3.472-4.148c7,0,13.999,0,20.998,0
			c-0.997,1.11-1.945,2.27-2.999,3.324C193.093,98.211,99.213,192.091,5.325,285.964c-1.054,1.054-2.215,2.002-3.325,3
			C2,281.965,2,274.966,2,267.966z"/>
		<path fill-rule="evenodd" clip-rule="evenodd" fill="#FFFFFF" d="M2,102.987c0-21.664,0-43.328,0-64.992
			C14.332,25.663,26.663,13.332,38.995,1c21.664,0,43.328,0,64.992,0c-0.874,1.163-1.622,2.451-2.64,3.47
			C69.41,36.451,37.451,68.41,5.47,100.347C4.451,101.364,3.163,102.113,2,102.987z"/>
		<path fill-rule="evenodd" clip-rule="evenodd" d="M2,181.977c13.854-13.663,27.78-27.253,41.548-41.001
			C89.107,95.485,134.613,49.94,180.123,4.401c1.042-1.043,1.907-2.264,2.854-3.401c6.999,0,13.998,0,20.998,0
			c-0.901,1.157-1.689,2.427-2.719,3.456C135.735,69.896,70.196,135.317,4.649,200.729c-0.817,0.815-1.763,1.5-2.649,2.245
			C2,195.975,2,188.976,2,181.977z"/>
		<path fill-rule="evenodd" clip-rule="evenodd" d="M480.939,1c-1.252,1.333-2.468,2.702-3.759,3.994
			c-49.093,49.104-98.199,98.195-147.257,147.335c-1.396,1.397-2.287,3.299-3.671,5.346c-4.606-4.158-8.006-7.226-11.743-10.599
			c1.69-1.768,3.015-3.206,4.396-4.588c45.68-45.688,91.367-91.37,137.04-137.065c1.402-1.404,2.668-2.946,3.997-4.423
			C466.941,1,473.94,1,480.939,1z"/>
		<path fill-rule="evenodd" clip-rule="evenodd" d="M2,458.942c1.478-1.33,3.02-2.595,4.424-3.998
			c43.252-43.229,86.498-86.466,129.704-129.741c1.518-1.521,2.623-3.451,4.379-5.807c4.349,4.003,7.696,7.083,11.305,10.404
			c-1.041,1.266-1.771,2.322-2.664,3.216C100.73,381.449,52.3,429.868,3.865,478.282c-0.587,0.587-1.242,1.106-1.865,1.657
			C2,472.94,2,465.941,2,458.942z"/>
		<path fill-rule="evenodd" clip-rule="evenodd" d="M2,102.987c1.163-0.874,2.451-1.623,3.47-2.64
			C37.451,68.41,69.41,36.451,101.347,4.47c1.018-1.019,1.767-2.307,2.64-3.47c7,0,13.999,0,20.998,0
			c-0.841,1.011-1.609,2.096-2.534,3.022C83.32,43.178,44.177,82.32,5.022,121.45c-0.927,0.926-2.012,1.693-3.022,2.534
			C2,116.985,2,109.986,2,102.987z"/>
		<path fill-rule="evenodd" clip-rule="evenodd" d="M38.995,1C26.663,13.332,14.332,25.663,2,37.995c0-6.999,0-13.998,0-20.997
			C7.333,11.665,12.665,6.333,17.998,1C24.997,1,31.996,1,38.995,1z"/>
		<path fill-rule="evenodd" clip-rule="evenodd" fill="#FFFFFF" d="M17.998,1C12.665,6.333,7.333,11.665,2,16.998
			C2,11.665,2,6.333,2,1C7.333,1,12.665,1,17.998,1z"/>
		<path fill-rule="evenodd" clip-rule="evenodd" d="M115.171,512.936c132.915-132.915,265.705-265.705,398.563-398.563
			c-0.896,8.022,2.799,16.47-5.474,24.707c-123,122.478-245.68,245.276-368.308,368.127c-4.243,4.25-8.417,6.486-14.39,5.803
			C122.017,512.604,118.386,512.936,115.171,512.936z"/>
		<path fill-rule="evenodd" clip-rule="evenodd" d="M219.992,512.935c97.724-98.022,195.519-196.113,293.859-294.751
			c0,6.578,0.272,12.675-0.168,18.721c-0.131,1.799-2.045,3.672-3.514,5.14c-48.102,48.035-96.273,96-144.384,144.027
			c-40.564,40.494-81.121,80.997-121.507,121.669c-3.867,3.894-7.71,5.77-13.111,5.266
			C227.227,512.639,223.225,512.935,219.992,512.935z"/>
		<path fill-rule="evenodd" clip-rule="evenodd" d="M513.911,306.032c0,4.779,0.281,10.731-0.17,16.628
			c-0.137,1.787-2.093,3.624-3.56,5.093c-54.147,54.217-108.334,108.393-162.516,162.574c-6.479,6.479-12.794,13.134-19.537,19.322
			c-1.945,1.785-5.055,2.863-7.747,3.146c-4.755,0.499-9.599,0.14-13.374,0.14C375.802,444.142,444.937,375.007,513.911,306.032z"/>
		<path fill-rule="evenodd" clip-rule="evenodd" d="M366.521,194.09c-3.44-3.097-6.743-6.071-9.623-8.664
			c52.444-52.439,104.646-104.638,156.97-156.958c0,5.567,0.132,11.61-0.107,17.638c-0.05,1.252-1.288,2.639-2.296,3.646
			c-47.464,47.434-94.962,94.833-142.463,142.228C368.313,192.668,367.517,193.249,366.521,194.09z"/>
		<path fill-rule="evenodd" clip-rule="evenodd" d="M182.812,358.112c3.353,3.049,6.743,6.133,10.313,9.381
			c-1.593,1.667-2.821,3.005-4.103,4.287c-45.579,45.588-91.198,91.136-136.672,136.827c-3.226,3.242-6.384,4.784-10.91,4.403
			c-4.225-0.355-8.502-0.076-12.782-0.076C80.158,461.212,131.319,409.827,182.812,358.112z"/>
		<path fill-rule="evenodd" clip-rule="evenodd" d="M513.921,383.428c0,5.696,0.19,11.36-0.112,16.999
			c-0.095,1.765-1.12,3.855-2.391,5.127c-34.151,34.152-68.442,68.168-102.54,102.376c-3.567,3.579-7.041,5.604-12.181,5.089
			c-4.114-0.411-8.304-0.083-11.504-0.083C427.774,470.096,470.715,426.896,513.921,383.428z"/>
		<path fill-rule="evenodd" clip-rule="evenodd" d="M470.662,512.935c14.539-14.525,28.725-28.698,43.167-43.13
			c0,5.951,0.141,12.163-0.122,18.358c-0.051,1.202-1.565,2.446-2.593,3.486c-5.97,6.044-11.826,12.219-18.103,17.93
			c-1.962,1.786-5.036,2.925-7.724,3.213C480.527,513.303,475.674,512.935,470.662,512.935z"/>
	</g>
</g>
<g id="Ebene_2" opacity="0.5">
	<radialGradient id="SVGID_1_" cx="256" cy="256" r="256" gradientUnits="userSpaceOnUse">
		<stop  offset="0" style="stop-color:#FFFFFF"/>
		<stop  offset="1" style="stop-color:#000000"/>
	</radialGradient>
	<rect fill="url(#SVGID_1_)" width="512" height="512"/>
</g>
<text transform="matrix(0.7071 -0.7071 0.7071 0.7071 209.1348 334.043)" font-family="'MyriadPro-Regular'" font-size="72">NSFW</text>
</svg>
